# xmcd
#
# Track frame offsets:
#	150
#	12930
#	28632
#	44565
#	56907
#	75151
#	88971
#	108306
#	122315
#	139297
#	157319
#	173258
#	191607
#
# Disc length: 2751 seconds
#
# Revision: 1
# Processed by: cddbd v1.5.1PL2 Copyright (c) Steve Scherf et al.
# Submitted via: audiograbber 1.83.01
#
DISCID=a50abd0d
DTITLE=Various Artist - ERG Nu Country Traxx Vol. 20
DYEAR=2000
DGENRE=Country
TTITLE0=Trick Pony - Pour Me
TTITLE1=Collin Raye - She's All That
TTITLE2=Pam Tillis - Please
TTITLE3=Billy Yates - What Do You Want From Me Now
TTITLE4=Travis Tritt - It's A Great Day To Be Alive
TTITLE5=Charlie Daniels Band - Layla
TTITLE6=Keeping 6 - The Edge Of The Knife
TTITLE7=Cledus T. Judd - How Do You Milk A Cow
TTITLE8=Bill Engvall - Shoulda Shut Up
TTITLE9=SHeDAISY - Jingle Bells
TTITLE10=Craig Morgan - The Kid In Me
TTITLE11=Montgomery Gentry - Merry Christmas From The Family
TTITLE12=Ray Driskoll - Christmas Ball
EXTD=
EXTT0=
EXTT1=
EXTT2=
EXTT3=
EXTT4=
EXTT5=
EXTT6=
EXTT7=
EXTT8=
EXTT9=
EXTT10=
EXTT11=
EXTT12=
PLAYORDER=
